<svg id="圖層_1" data-name="圖層 1" xmlns="http://www.w3.org/2000/svg" viewBox="0 0 78.84 93.95"><defs><style>.cls-1{fill:#595757;}.cls-2{fill:#fff;}</style></defs><circle class="cls-1" cx="36.39" cy="36.39" r="36.39"/><path class="cls-1" d="M76.9,90.91l-3.33,2.24c-1.81,1.22-4.06,1-5-.43L44.74,57.36c-1-1.45-.31-3.61,1.5-4.83l3.32-2.24c1.81-1.21,4.07-1,5,.43L78.39,86.08C79.37,87.54,78.7,89.7,76.9,90.91Z"/><circle class="cls-2" cx="36.39" cy="36.39" r="26.9"/><rect class="cls-1" x="37.94" y="24.97" width="10.29" height="10.29" rx="1.96"/><rect class="cls-1" x="25.44" y="24.97" width="10.29" height="10.29" rx="1.96"/><rect class="cls-1" x="37.94" y="37.88" width="10.29" height="10.29" rx="1.96"/><rect class="cls-1" x="25.44" y="37.88" width="10.29" height="10.29" rx="1.96"/></svg>